{
  "accessors": [
    {
      "bufferView": 2,
      "componentType": 5126,
      "count": 15364,
      "max": [
        20.097801208496094,
        -1.2175331115722656,
        14.13465690612793
      ],
      "min": [
        -17.000743865966797,
        -29.06708526611328,
        -17.08437728881836
      ],
      "type": "VEC3"
    },
    {
      "bufferView": 2,
      "byteOffset": 184368,
      "componentType": 5126,
      "count": 15364,
      "max": [
        0.9999847412109375,
        0.9986493587493896,
        0.9998589158058167
      ],
      "min": [
        -0.999984860420227,
        -0.9999999403953552,
        -0.9999600052833557
      ],
      "type": "VEC3"
    },
    {
      "bufferView": 3,
      "componentType": 5126,
      "count": 15364,
      "max": [
        0.9999855756759644,
        0.9999977946281433,
        0.9998864531517029,
        1.0
      ],
      "min": [
        -0.9998652338981628,
        -0.9999980330467224,
        -0.9998951554298401,
        -1.0
      ],
      "type": "VEC4"
    },
    {
      "bufferView": 1,
      "componentType": 5126,
      "count": 15364,
      "max": [
        0.9682777523994446,
        0.9991539120674133
      ],
      "min": [
        0.0008263550698757172,
        0.000777033856138587
      ],
      "type": "VEC2"
    },
    {
      "bufferView": 0,
      "componentType": 5125,
      "count": 85275,
      "type": "SCALAR"
    }
  ],
  "asset": {
    "extras": {
      "author": "3dhdscan (https://sketchfab.com/3dhdscan)",
      "license": "CC-BY-4.0 (http://creativecommons.org/licenses/by/4.0/)",
      "source": "https://sketchfab.com/3d-models/ceramic-cat-sculpture-jundorv-ff0da227b0a348c493bca953f7e21798",
      "title": "Ceramic Cat Sculpture - Jundorv"
    },
    "generator": "Sketchfab-12.67.0",
    "version": "2.0"
  },
  "bufferViews": [
    {
      "buffer": 0,
      "byteLength": 341100,
      "name": "floatBufferViews",
      "target": 34963
    },
    {
      "buffer": 0,
      "byteLength": 122912,
      "byteOffset": 341100,
      "byteStride": 8,
      "name": "floatBufferViews",
      "target": 34962
    },
    {
      "buffer": 0,
      "byteLength": 368736,
      "byteOffset": 464012,
      "byteStride": 12,
      "name": "floatBufferViews",
      "target": 34962
    },
    {
      "buffer": 0,
      "byteLength": 245824,
      "byteOffset": 832748,
      "byteStride": 16,
      "name": "floatBufferViews",
      "target": 34962
    }
  ],
  "buffers": [
    {
      "byteLength": 1078572,
      "uri": "scene.bin"
    }
  ],
  "images": [
    {
      "uri": "textures/Scene_-_Root_baseColor.jpeg"
    },
    {
      "uri": "textures/Scene_-_Root_normal.jpeg"
    }
  ],
  "materials": [
    {
      "doubleSided": true,
      "name": "Scene_-_Root",
      "normalTexture": {
        "index": 1
      },
      "pbrMetallicRoughness": {
        "baseColorTexture": {
          "index": 0
        },
        "metallicFactor": 0.03830030487804878,
        "roughnessFactor": 0.3248856707317074
      }
    }
  ],
  "meshes": [
    {
      "name": "kocka_zabiny__0",
      "primitives": [
        {
          "attributes": {
            "NORMAL": 1,
            "POSITION": 0,
            "TANGENT": 2,
            "TEXCOORD_0": 3
          },
          "indices": 4,
          "material": 0,
          "mode": 4
        }
      ]
    }
  ],
  "nodes": [
    {
      "children": [
        1
      ],
      "matrix": [
        0.0714285746216774,
        0.0,
        0.0,
        0.0,
        0.0,
        1.5860329632228476e-17,
        -0.0714285746216774,
        0.0,
        0.0,
        0.0714285746216774,
        1.5860329632228476e-17,
        0.0,
        0.0,
        0.0,
        0.0,
        1.0
      ],
      "name": "Sketchfab_model"
    },
    {
      "children": [
        2
      ],
      "matrix": [
        1.0,
        0.0,
        0.0,
        0.0,
        0.0,
        0.0,
        1.0,
        0.0,
        0.0,
        -1.0,
        0.0,
        0.0,
        0.0,
        0.0,
        0.0,
        1.0
      ],
      "name": "kocka_zabiny.FBX"
    },
    {
      "children": [
        3
      ],
      "name": "RootNode"
    },
    {
      "children": [
        4
      ],
      "matrix": [
        -0.42062267265862685,
        5.117434254131581e-17,
        -0.9072356734859549,
        0.0,
        -0.004101786116025205,
        -0.9999897793619752,
        0.0019017156062296617,
        0.0,
        -0.9072264009585328,
        0.004521191390396405,
        0.4206183736265442,
        0.0,
        -0.7398333549499512,
        -1.2530336380004883,
        2.246779441833496,
        1.0
      ],
      "name": "kocka_zabiny"
    },
    {
      "mesh": 0,
      "name": "kocka_zabiny__0"
    }
  ],
  "samplers": [
    {
      "magFilter": 9729,
      "minFilter": 9987,
      "wrapS": 10497,
      "wrapT": 10497
    }
  ],
  "scene": 0,
  "scenes": [
    {
      "name": "Sketchfab_Scene",
      "nodes": [
        0
      ]
    }
  ],
  "textures": [
    {
      "sampler": 0,
      "source": 0
    },
    {
      "sampler": 0,
      "source": 1
    }
  ]
}
